#!OML:ASF X:\für Bonn\!DataBase\2005_08_12_Daniel\c3d\Daniel.ASF
:FULLY-SPECIFIED
:DEGREES
725
root 3.10976 17.2076 -0.798824 -54.2714 -81.2981 51.1704
lowerback 12.8396 -2.75003 -5.46018
upperback -0.123783 -4.65947 -1.80916
thorax -7.05864 -2.13243 2.015
lowerneck 0.940534 3.73787 -4.84229
upperneck -3.71776 4.83045 -0.493971
head -1.41867 2.4735 0.577624
rclavicle 2.55314e-015 -4.57205e-015
rhumerus -62.1025 -43.004 -25.8372
rradius 21.9151
rwrist -51.3979
rhand -22.8839 11.7648
rfingers 7.12502
rthumb 3.55519 -18.1853
lclavicle 2.55314e-015 -4.57205e-015
lhumerus -88.9351 53.446 1.42414
lradius 47.9384
lwrist 64.7701
lhand -21.9034 -6.05456
lfingers 7.12502
lthumb 4.50203 23.8776
rfemur -11.4174 -0.91694 16.5721
rtibia 47.1778
rfoot -14.5216 3.22761
rtoes 4.39453
lfemur -13.5708 -10.722 -26.9013
ltibia 49.5632
lfoot -13.5019 1.29765
ltoes 1.41728
726
root 3.05597 17.4534 -0.811075 -54.2697 -81.2948 51.5554
lowerback 11.9012 -2.76835 -5.66431
upperback -0.213535 -4.64719 -1.83107
thorax -6.61223 -2.13409 2.04687
lowerneck 1.67579 3.73172 -4.9614
upperneck -3.78339 4.78764 -0.282202
head -1.57693 2.45437 0.650742
rclavicle 3.30076e-014 -2.3059e-014
rhumerus -60.4407 -42.5752 -24.6754
rradius 22.1705
rwrist -50.6005
rhand -22.8849 12.1977
rfingers 7.12502
rthumb 3.55429 -17.7524
lclavicle 3.30076e-014 -2.3059e-014
lhumerus -86.5371 52.7428 2.05176
lradius 49.4342
lwrist 64.3015
lhand -20.77 -6.32511
lfingers 7.12502
lthumb 5.59643 23.581
rfemur -10.9573 -1.22136 16.0128
rtibia 45.0084
rfoot -10.2458 2.88548
rtoes 4.20265
lfemur -13.2452 -10.9257 -26.4411
ltibia 47.5322
lfoot -9.26288 1.08054
ltoes 1.47573
727
root 3.0038 17.6826 -0.823267 -54.1382 -81.3149 51.8118
lowerback 10.9572 -2.78571 -5.80719
upperback -0.321056 -4.62385 -1.87647
thorax -6.18857 -2.13209 2.01883
lowerneck 2.50887 3.71207 -5.01791
upperneck -3.83587 4.72263 -0.0811569
head -1.74697 2.42246 0.709888
rclavicle 6.30831e-015 1.1778e-014
rhumerus -58.7895 -42.3135 -23.3851
rradius 22.3621
rwrist -49.8698
rhand -23.0675 12.8723
rfingers 7.12502
rthumb 3.37787 -17.0806
lclavicle 6.30831e-015 1.1778e-014
lhumerus -84.0327 52.1252 2.25339
lradius 50.7281
lwrist 63.8984
lhand -20.0307 -6.15572
lfingers 7.12502
lthumb 6.31022 23.7303
rfemur -10.6062 -1.60802 15.4478
rtibia 43.0199
rfoot -5.91735 2.41338
rtoes 2.99309
lfemur -13.0738 -11.1776 -25.9229
ltibia 45.7373
lfoot -4.97622 0.998651
ltoes 1.55164
728
root 2.95341 17.9043 -0.835972 -54.0031 -81.3327 52.0761
lowerback 10.0304 -2.81147 -5.92592
upperback -0.461289 -4.61024 -1.93925
thorax -5.81137 -2.13391 1.9633
lowerneck 3.31432 3.69301 -5.06024
upperneck -3.77218 4.662 0.12477
head -1.87574 2.38944 0.770511
rclavicle 1.69743e-015 3.3048e-015
rhumerus -57.0884 -42.2818 -21.9487
rradius 22.4342
rwrist -49.2395
rhand -23.2923 13.6655
rfingers 7.12502
rthumb 3.16087 -16.2908
lclavicle 1.69743e-015 3.3048e-015
lhumerus -81.3692 51.4121 2.25494
lradius 51.847
lwrist 63.7377
lhand -19.6221 -5.60577
lfingers 7.12502
lthumb 6.70467 24.2681
rfemur -10.3158 -1.93111 14.8323
rtibia 41.2041
rfoot -1.70049 1.8824
rtoes 1.25794
lfemur -13.0785 -11.4767 -25.3759
ltibia 44.2279
lfoot -0.904945 1.05441
ltoes 1.37614
729
root 2.90483 18.1157 -0.849514 -53.7315 -81.354 52.1733
lowerback 9.16615 -2.8565 -6.01019
upperback -0.621181 -4.62377 -2.02101
thorax -5.49188 -2.14832 1.87734
lowerneck 3.99605 3.67173 -5.01409
upperneck -3.54939 4.61025 0.30043
head -1.92774 2.35676 0.810254
rclavicle 1.83144e-014 3.09607e-014
rhumerus -55.2232 -42.3851 -20.458
rradius 22.4706
rwrist -48.8893
rhand -23.5499 14.1345
rfingers 7.12502
rthumb 2.91209 -15.8254
lclavicle 1.83144e-014 3.09607e-014
lhumerus -78.5532 50.6602 2.04585
lradius 52.7847
lwrist 63.7735
lhand -19.5695 -4.78832
lfingers 7.12502
lthumb 6.75536 25.0839
rfemur -10.0387 -2.11904 14.1893
rtibia 39.5902
rfoot 1.96223 1.15158
rtoes -0.442997
lfemur -13.1495 -11.8783 -24.8047
ltibia 42.9477
lfoot 2.771 1.32255
ltoes 1.39047
730
root 2.85991 18.3174 -0.863227 -53.4528 -81.3795 52.246
lowerback 8.35966 -2.89157 -6.06766
upperback -0.800901 -4.62646 -2.11229
thorax -5.2289 -2.15627 1.76967
lowerneck 4.58295 3.63545 -4.96624
upperneck -3.19297 4.54495 0.488063
head -1.9191 2.31428 0.856887
rclavicle -1.09914e-014 -3.8763e-015
rhumerus -53.2533 -42.7169 -18.8124
rradius 22.4634
rwrist -48.6543
rhand -23.7879 14.167
rfingers 7.12502
rthumb 2.68223 -15.7959
lclavicle -1.09914e-014 -3.8763e-015
lhumerus -75.535 49.9037 1.69538
lradius 53.431
lwrist 63.9432
lhand -19.5874 -3.90369
lfingers 7.12502
lthumb 6.73817 25.9691
rfemur -9.77173 -2.27672 13.5327
rtibia 38.1687
rfoot 4.82485 0.119016
rtoes -2.28697
lfemur -13.3167 -12.2944 -24.2053
ltibia 41.8949
lfoot 5.95511 1.71113
ltoes 1.1142
731
root 2.81951 18.5073 -0.877126 -53.0413 -81.4105 52.1366
lowerback 7.66723 -2.93848 -6.10895
upperback -1.00339 -4.6525 -2.19068
thorax -5.05231 -2.17274 1.67702
lowerneck 5.22612 3.61093 -4.91535
upperneck -2.84955 4.48966 0.656362
head -1.92442 2.2765 0.895848
rclavicle 7.14965e-015 8.15017e-015
rhumerus -51.1063 -43.2249 -17.1545
rradius 22.4093
rwrist -48.5338
rhand -24.0187 13.8808
rfingers 7.12502
rthumb 2.45933 -16.0848
lclavicle 7.14965e-015 8.15017e-015
lhumerus -72.4295 49.1569 1.18472
lradius 53.8616
lwrist 64.1582
lhand -19.6814 -3.10734
lfingers 7.12502
lthumb 6.64742 26.7683
rfemur -9.5105 -2.33017 12.9154
rtibia 36.9923
rfoot 6.92847 -1.11619
rtoes -3.79873
lfemur -13.4943 -12.7977 -23.585
ltibia 41.0199
lfoot 8.51745 2.311
ltoes 0.366006
732
root 2.78231 18.6847 -0.891996 -52.591 -81.4403 51.9391
lowerback 7.03529 -2.97186 -6.15071
upperback -1.17966 -4.66323 -2.25984
thorax -4.88212 -2.18187 1.59532
lowerneck 5.82808 3.58137 -4.91249
upperneck -2.49027 4.42544 0.840592
head -1.91877 2.23341 0.949568
rclavicle -4.98031e-014 -2.69353e-014
rhumerus -48.8878 -44.0566 -15.3961
rradius 22.3765
rwrist -48.2741
rhand -24.3481 13.1527
rfingers 7.12502
rthumb 2.14114 -16.8163
lclavicle -4.98031e-014 -2.69353e-014
lhumerus -68.9722 48.5448 0.601432
lradius 53.8484
lwrist 64.2757
lhand -19.6995 -2.47313
lfingers 7.12502
lthumb 6.6299 27.4031
rfemur -9.25806 -2.23707 12.3173
rtibia 36.0675
rfoot 8.34031 -2.27581
rtoes -4.92568
lfemur -13.6742 -13.2934 -22.9467
ltibia 40.3161
lfoot 10.5309 2.79871
ltoes -0.579277
733
root 2.74781 18.8504 -0.906358 -52.145 -81.4719 51.7107
lowerback 6.5045 -3.00775 -6.16356
upperback -1.38094 -4.68535 -2.33687
thorax -4.79729 -2.1946 1.49787
lowerneck 6.48674 3.5575 -4.86747
upperneck -2.17953 4.36546 0.990163
head -1.93698 2.19252 0.984079
rclavicle 5.34622e-014 2.84262e-014
rhumerus -46.5053 -44.8255 -13.8905
rradius 22.5222
rwrist -48.0992
rhand -24.7844 12.1008
rfingers 7.12502
rthumb 1.71979 -17.872
lclavicle 5.34622e-014 2.84262e-014
lhumerus -65.1387 48.013 -0.0859675
lradius 53.3196
lwrist 64.2993
lhand -19.6161 -2.10504
lfingers 7.12502
lthumb 6.71041 27.7686
rfemur -9.04455 -2.02668 11.7228
rtibia 35.39
rfoot 9.19339 -3.44953
rtoes -5.17883
lfemur -13.8323 -13.749 -22.3041
ltibia 39.7454
lfoot 11.7074 3.27727
ltoes -0.89876
734
root 2.7184 19.0037 -0.921622 -51.5821 -81.4963 51.2765
lowerback 6.13906 -3.04814 -6.16283
upperback -1.5696 -4.72539 -2.40692
thorax -4.79201 -2.21412 1.41175
lowerneck 7.14948 3.54095 -4.7947
upperneck -1.89958 4.31434 1.09383
head -1.96404 2.15655 0.998908
rclavicle 6.76489e-015 -2.40529e-014
rhumerus -43.8515 -45.5212 -12.6784
rradius 22.7704
rwrist -48.0245
rhand -25.3122 11.0804
rfingers 7.12502
rthumb 1.21004 -18.8959
lclavicle 6.76489e-015 -2.40529e-014
lhumerus -61.0097 47.6527 -0.827689
lradius 52.3752
lwrist 64.1137
lhand -19.4554 -1.94997
lfingers 7.12502
lthumb 6.86554 27.9187
rfemur -8.80934 -1.75277 11.1471
rtibia 34.9131
rfoot 9.48197 -4.8175
rtoes -5.17142
lfemur -13.8689 -14.1503 -21.6611
ltibia 39.2718
lfoot 12.4141 3.714
ltoes -0.585507
735
root 2.69149 19.1438 -0.938449 -51.021 -81.5077 50.7672
lowerback 5.90529 -3.0794 -6.16787
upperback -1.74715 -4.76508 -2.48291
thorax -4.84991 -2.23167 1.33053
lowerneck 7.80876 3.52299 -4.70039
upperneck -1.64758 4.2634 1.19976
head -1.99913 2.12025 1.01096
rclavicle 3.13396e-014 1.90833e-014
rhumerus -40.938 -45.9977 -11.7898
rradius 23.0732
rwrist -48.1059
rhand -25.8667 10.251
rfingers 7.12502
rthumb 0.6745 -19.7277
lclavicle 3.13396e-014 1.90833e-014
lhumerus -56.6356 47.4556 -1.56171
lradius 51.1247
lwrist 63.7392
lhand -19.2062 -1.89033
lfingers 7.12502
lthumb 7.10611 27.9704
rfemur -8.51617 -1.45402 10.5681
rtibia 34.5915
rfoot 9.2439 -6.416
rtoes -5.11432
lfemur -13.7785 -14.4727 -21.038
ltibia 38.8572
lfoot 12.7545 4.12886
ltoes -0.0590337
736
root 2.66537 19.2732 -0.955086 -50.2417 -81.5095 49.9554
lowerback 5.75739 -3.12453 -6.12293
upperback -1.88083 -4.82524 -2.57662
thorax -4.91467 -2.26178 1.20929
lowerneck 8.36477 3.50011 -4.5169
upperneck -1.35237 4.21811 1.24891
head -1.99704 2.08703 0.990979
rclavicle -5.46099e-014 -3.71727e-014
rhumerus -37.7074 -46.2009 -11.3026
rradius 23.395
rwrist -48.2998
rhand -26.3395 9.85216
rfingers 7.12502
rthumb 0.217835 -20.1275
lclavicle -5.46099e-014 -3.71727e-014
lhumerus -52.061 47.3683 -2.19873
lradius 49.6641
lwrist 63.1727
lhand -19.0094 -1.92707
lfingers 7.12502
lthumb 7.29608 27.9271
rfemur -8.11609 -1.12026 10.0133
rtibia 34.369
rfoot 8.48342 -8.17412
rtoes -5.14753
lfemur -13.5877 -14.755 -20.4143
ltibia 38.4708
lfoot 12.8463 4.53917
ltoes 0.467964
737
root 2.63874 19.3897 -0.972476 -49.4718 -81.5004 49.019
lowerback 5.73589 -3.16301 -6.09972
upperback -1.9666 -4.88413 -2.64671
thorax -4.99742 -2.28992 1.13082
lowerneck 8.88943 3.4879 -4.38115
upperneck -1.03491 4.1833 1.28761
head -1.9832 2.05912 0.976122
rclavicle -7.25564e-015 3.97569e-015
rhumerus -34.0306 -45.9423 -11.1713
rradius 23.602
rwrist -48.7784
rhand -26.7066 9.8647
rfingers 7.12502
rthumb -0.13674 -20.115
lclavicle -7.25564e-015 3.97569e-015
lhumerus -47.1624 47.2977 -2.62991
lradius 47.892
lwrist 62.5715
lhand -18.9364 -1.87987
lfingers 7.12502
lthumb 7.36657 27.9719
rfemur -7.56081 -0.752591 9.4689
rtibia 34.2203
rfoot 7.20403 -9.77095
rtoes -5.70092
lfemur -13.2569 -15.0316 -19.8318
ltibia 38.076
lfoot 12.7533 4.98535
ltoes 0.607476
738
root 2.61197 19.4938 -0.990278 -48.6037 -81.4628 47.8478
lowerback 5.83884 -3.20742 -6.07002
upperback -1.98409 -4.95767 -2.73518
thorax -5.08063 -2.32663 1.03704
lowerneck 9.37263 3.46966 -4.17323
upperneck -0.739617 4.1501 1.29349
head -1.9661 2.03296 0.938729
rclavicle -2.24005e-014 -9.14409e-015
rhumerus -30.1392 -45.4641 -11.2062
rradius 23.6855
rwrist -49.2427
rhand -26.8442 10.2445
rfingers 7.12502
rthumb -0.269588 -19.7351
lclavicle -2.24005e-014 -9.14409e-015
lhumerus -41.7296 47.0789 -2.81923
lradius 45.6636
lwrist 62.0449
lhand -19.0203 -1.85816
lfingers 7.12502
lthumb 7.28558 27.9964
rfemur -6.84919 -0.435109 8.93066
rtibia 34.1156
rfoot 5.90201 -11.0724
rtoes -6.10445
lfemur -12.7764 -15.3709 -19.2849
ltibia 37.6407
lfoot 12.5347 5.54389
ltoes 0.393184
